# File created by Blade
# Date/Time:  Thu Sep 25 19:36:54 2014
# Frame Rate: 120.000 fps
#------------------------------------------------------
:FULLY-SPECIFIED
:DEGREES
338
root 0.305898 33.601879 2.440310 40.313413 -5.145624 -17.208536
Spine -24.865654 0.745843 13.933002
Head -12.890447 8.209084 8.919463
LeftShoulder -6.669729 18.581166 14.138383
LeftArm 30.237827 7.300999 -44.468698
LeftForeArm 4.828069 -0.000000 18.720099
LeftHand -22.557517 -0.000000 -5.439670
LeftHandThumb1 -26.253704 0.000000 33.147579
RightShoulder -20.811347 -2.315592 -24.809705
RightArm -37.354896 -24.648233 79.132220
RightForeArm -16.147986 -0.000000 10.334278
RightHand -4.994446 -0.000000 27.796167
RightHandThumb1 -24.326973 -0.000000 -32.862282
LeftUpLeg -34.324764 10.768796 6.025356
LeftLeg 1.935844 -0.000000 -0.000000
LeftFoot -12.330436 9.793429 -10.213448
LeftToeBase 7.959872 -0.000000 -0.000000
RightUpLeg 7.460544 16.573630 -23.269412
RightLeg 125.366145 -0.000000 -0.000000
RightFoot 29.201765 -7.451306 12.943726
RightToeBase 3.554742 -0.000000 -0.000000
339
root 0.308126 33.604086 2.409341 40.734760 -5.250557 -17.303364
Spine -24.937287 0.693522 14.035525
Head -13.180350 8.565048 8.942801
LeftShoulder -6.573948 18.432051 14.233686
LeftArm 30.340607 6.930431 -44.336141
LeftForeArm 4.856791 0.000000 18.757047
LeftHand -22.521689 -0.000000 -5.345259
LeftHandThumb1 -26.253704 0.000000 33.147579
RightShoulder -20.846205 -2.266666 -24.914199
RightArm -37.266612 -24.701320 78.916745
RightForeArm -16.428408 -0.000000 10.346085
RightHand -5.025011 0.000000 27.709909
RightHandThumb1 -24.326973 -0.000000 -32.862282
LeftUpLeg -34.722197 10.787123 6.039028
LeftLeg 1.866889 -0.000000 -0.000000
LeftFoot -12.335276 10.016223 -9.963977
LeftToeBase 8.072887 -0.000000 -0.000000
RightUpLeg 7.475009 16.700605 -23.310061
RightLeg 125.148853 -0.000000 -0.000000
RightFoot 29.319297 -7.511420 12.937057
RightToeBase 3.356355 -0.000000 -0.000000
340
root 0.313127 33.605830 2.378514 41.146142 -5.357659 -17.383758
Spine -24.980692 0.680627 14.126308
Head -13.528434 8.874325 8.902254
LeftShoulder -6.460518 18.324857 14.306384
LeftArm 30.514536 6.477482 -44.175545
LeftForeArm 5.026574 -0.000000 18.769810
LeftHand -22.411583 -0.000000 -5.540375
LeftHandThumb1 -26.253704 0.000000 33.147579
RightShoulder -20.849758 -2.267275 -24.961288
RightArm -37.203647 -24.660375 78.652923
RightForeArm -16.613169 0.000000 10.411249
RightHand -4.930224 -0.000000 27.493012
RightHandThumb1 -24.326973 -0.000000 -32.862282
LeftUpLeg -35.106387 10.769762 6.052502
LeftLeg 1.798758 -0.000000 -0.000000
LeftFoot -12.355075 10.296233 -9.652415
LeftToeBase 8.210518 -0.000000 -0.000000
RightUpLeg 7.504823 16.837108 -23.360480
RightLeg 124.942705 -0.000000 -0.000000
RightFoot 29.373371 -7.559452 12.932650
RightToeBase 3.374991 -0.000000 -0.000000
341
root 0.312732 33.609046 2.347653 41.553310 -5.472456 -17.512108
Spine -25.010209 0.649245 14.234496
Head -13.830124 9.285597 8.986385
LeftShoulder -6.382281 18.164568 14.420525
LeftArm 30.663261 5.908296 -44.161380
LeftForeArm 5.194151 -0.000000 18.713713
LeftHand -22.327494 -0.000000 -5.377230
LeftHandThumb1 -26.253704 0.000000 33.147579
RightShoulder -20.880964 -2.198104 -25.034716
RightArm -37.126659 -24.749901 78.453644
RightForeArm -16.801960 -0.000000 10.438060
RightHand -4.962169 -0.000000 27.434959
RightHandThumb1 -24.326973 -0.000000 -32.862282
LeftUpLeg -35.463985 10.795794 6.116307
LeftLeg 1.708495 -0.000000 -0.000000
LeftFoot -12.360100 10.590445 -9.373918
LeftToeBase 8.227353 -0.000000 -0.000000
RightUpLeg 7.522564 16.996670 -23.359838
RightLeg 124.756263 -0.000000 -0.000000
RightFoot 29.399208 -7.672226 12.958859
RightToeBase 3.425961 -0.000000 -0.000000
342
root 0.316918 33.611774 2.315123 41.978978 -5.604666 -17.610508
Spine -25.084548 0.602779 14.301754
Head -14.047434 9.706740 9.141392
LeftShoulder -6.287473 18.068024 14.544860
LeftArm 30.831559 5.525813 -43.922945
LeftForeArm 5.060969 -0.000000 18.721959
LeftHand -22.404459 0.000000 -5.090479
LeftHandThumb1 -26.253704 0.000000 33.147579
RightShoulder -20.849471 -2.249498 -25.039964
RightArm -36.953052 -24.809402 78.212489
RightForeArm -17.003547 -0.000000 10.475607
RightHand -4.981517 -0.000000 27.389045
RightHandThumb1 -24.326973 -0.000000 -32.862282
LeftUpLeg -35.856167 10.798221 6.148211
LeftLeg 1.643128 -0.000000 -0.000000
LeftFoot -12.395849 10.876384 -9.089095
LeftToeBase 8.363073 -0.000000 -0.000000
RightUpLeg 7.521186 17.163083 -23.417916
RightLeg 124.566043 -0.000000 -0.000000
RightFoot 29.451027 -7.751728 13.006158
RightToeBase 3.436741 -0.000000 -0.000000
343
root 0.323821 33.615379 2.282434 42.411912 -5.714028 -17.695882
Spine -25.129474 0.560684 14.405160
Head -14.424281 10.107347 9.164092
LeftShoulder -6.225366 17.907731 14.587274
LeftArm 30.971105 5.019899 -43.739192
LeftForeArm 5.221920 -0.000000 18.767041
LeftHand -22.385460 -0.000000 -5.046436
LeftHandThumb1 -26.253704 0.000000 33.147579
RightShoulder -20.873139 -2.205094 -25.104046
RightArm -36.852728 -24.905717 77.998792
RightForeArm -17.180958 -0.000000 10.511363
RightHand -5.007332 -0.000000 27.329913
RightHandThumb1 -24.326973 -0.000000 -32.862282
LeftUpLeg -36.282548 10.799618 6.169120
LeftLeg 1.616696 -0.000000 -0.000000
LeftFoot -12.394174 11.095134 -8.897498
LeftToeBase 8.363607 -0.000000 -0.000000
RightUpLeg 7.509932 17.317523 -23.472141
RightLeg 124.389509 -0.000000 -0.000000
RightFoot 29.474065 -7.843517 13.191343
RightToeBase 3.603457 -0.000000 -0.000000
344
root 0.329528 33.618847 2.252568 42.799874 -5.855688 -17.811457
Spine -25.103704 0.629079 14.484024
Head -14.816032 10.417681 9.153072
LeftShoulder -6.079472 17.696428 14.653421
LeftArm 31.120607 4.745728 -43.363402
LeftForeArm 5.163476 -0.000000 18.805708
LeftHand -22.464913 -0.000000 -4.790226
LeftHandThumb1 -26.253704 0.000000 33.147579
RightShoulder -20.972273 -2.169834 -25.165982
RightArm -36.750105 -24.946243 77.741524
RightForeArm -17.441356 -0.000000 10.564088
RightHand -5.007933 0.000000 27.354045
RightHandThumb1 -24.326973 -0.000000 -32.862282
LeftUpLeg -36.646924 10.865644 6.191535
LeftLeg 1.587978 -0.000000 -0.000000
LeftFoot -12.382908 11.265239 -8.769009
LeftToeBase 8.299362 -0.000000 -0.000000
RightUpLeg 7.525583 17.506475 -23.507471
RightLeg 124.203314 -0.000000 -0.000000
RightFoot 29.607040 -7.926527 13.077201
RightToeBase 3.451234 -0.000000 -0.000000
345
root 0.337304 33.625160 2.214165 43.228840 -5.897602 -17.881778
Spine -25.162656 0.468229 14.651697
Head -15.093068 10.878310 9.214157
LeftShoulder -6.054397 17.608131 14.752838
LeftArm 31.336966 4.154326 -43.287119
LeftForeArm 5.383654 0.000000 18.762227
LeftHand -22.440609 -0.000000 -4.678135
LeftHandThumb1 -26.253704 0.000000 33.147579
RightShoulder -20.841279 -2.119162 -25.203565
RightArm -36.658460 -24.962623 77.526360
RightForeArm -17.660692 -0.000000 10.610274
RightHand -4.981734 -0.000000 27.228717
RightHandThumb1 -24.326973 -0.000000 -32.862282
LeftUpLeg -37.131651 10.853976 6.224815
LeftLeg 1.632137 -0.000000 -0.000000
LeftFoot -12.368574 11.392277 -8.714379
LeftToeBase 8.215081 -0.000000 -0.000000
RightUpLeg 7.536619 17.614537 -23.506908
RightLeg 124.041090 -0.000000 -0.000000
RightFoot 29.724020 -7.885640 13.012844
RightToeBase 3.294609 -0.000000 -0.000000
346
root 0.344963 33.628840 2.185402 43.626643 -6.057867 -17.981512
Spine -25.172102 0.492084 14.699852
Head -15.408700 11.180932 9.273656
LeftShoulder -5.939039 17.450825 14.887336
LeftArm 31.520696 3.934269 -42.887366
LeftForeArm 5.213557 -0.000000 18.751690
LeftHand -22.495112 -0.000000 -4.464917
LeftHandThumb1 -26.253704 0.000000 33.147579
RightShoulder -20.855979 -2.066454 -25.242598
RightArm -36.604328 -25.031550 77.332142
RightForeArm -17.927257 -0.000000 10.653661
RightHand -4.943906 -0.000000 27.175374
RightHandThumb1 -24.326973 -0.000000 -32.862282
LeftUpLeg -37.522803 10.995685 6.183935
LeftLeg 1.627746 -0.000000 -0.000000
LeftFoot -12.358027 11.410897 -8.688068
LeftToeBase 8.186100 -0.000000 -0.000000
RightUpLeg 7.541595 17.830842 -23.559561
RightLeg 123.880637 -0.000000 -0.000000
RightFoot 29.689937 -7.953364 13.130457
RightToeBase 3.635605 -0.000000 -0.000000
347
root 0.351898 33.635642 2.153256 44.031707 -6.154633 -18.081643
Spine -25.189671 0.458458 14.808228
Head -15.732974 11.498618 9.337261
LeftShoulder -5.857743 17.228451 15.026774
LeftArm 31.709763 3.604251 -42.618071
LeftForeArm 5.311648 -0.000000 18.680257
LeftHand -22.361401 -0.000000 -4.439424
LeftHandThumb1 -26.253704 0.000000 33.147579
RightShoulder -20.780568 -2.015067 -25.254764
RightArm -36.570532 -25.030019 77.119646
RightForeArm -18.111283 0.000000 10.736578
RightHand -4.980599 -0.000000 27.161942
RightHandThumb1 -24.326973 -0.000000 -32.862282
LeftUpLeg -37.963399 11.107050 6.167332
LeftLeg 1.673775 -0.000000 -0.000000
LeftFoot -12.349490 11.476003 -8.697102
LeftToeBase 8.108558 -0.000000 -0.000000
RightUpLeg 7.558222 17.963561 -23.565409
RightLeg 123.724031 -0.000000 -0.000000
RightFoot 29.716865 -8.053336 13.068583
RightToeBase 3.464587 -0.000000 -0.000000
348
root 0.360783 33.643455 2.120737 44.436842 -6.254669 -18.173259
Spine -25.204696 0.455337 14.894673
Head -16.049910 11.781996 9.368164
LeftShoulder -5.764342 17.128911 15.179809
LeftArm 32.002995 3.156719 -42.399390
LeftForeArm 5.335112 0.000000 18.663351
LeftHand -22.463116 0.000000 -4.347734
LeftHandThumb1 -26.253704 0.000000 33.147579
RightShoulder -20.774530 -2.024649 -25.295201
RightArm -36.458872 -25.137762 77.005351
RightForeArm -18.224847 -0.000000 10.739244
RightHand -5.012458 -0.000000 27.096572
RightHandThumb1 -24.326973 -0.000000 -32.862282
LeftUpLeg -38.389926 11.178833 6.176644
LeftLeg 1.689816 -0.000000 -0.000000
LeftFoot -12.290437 11.553261 -8.778323
LeftToeBase 8.056345 -0.000000 -0.000000
RightUpLeg 7.572752 18.134312 -23.570559
RightLeg 123.591416 -0.000000 -0.000000
RightFoot 29.708753 -8.077728 13.055907
RightToeBase 3.375614 -0.000000 -0.000000
349
root 0.369542 33.650858 2.088246 44.835738 -6.349302 -18.256644
Spine -25.228690 0.427620 14.972822
Head -16.309984 12.057312 9.443223
LeftShoulder -5.666363 16.966962 15.369052
LeftArm 32.240480 2.769372 -42.165602
LeftForeArm 5.267843 -0.000000 18.623053
LeftHand -22.461004 0.000000 -4.263897
LeftHandThumb1 -26.253704 0.000000 33.147579
RightShoulder -20.700535 -1.972914 -25.333595
RightArm -36.478959 -25.227850 76.932370
RightForeArm -18.334219 -0.000000 10.787521
RightHand -4.973468 -0.000000 27.016033
RightHandThumb1 -24.326973 -0.000000 -32.862282
LeftUpLeg -38.839209 11.326048 6.122916
LeftLeg 1.730177 -0.000000 -0.000000
LeftFoot -12.261625 11.460559 -8.996028
LeftToeBase 8.220520 -0.000000 -0.000000
RightUpLeg 7.598251 18.268524 -23.579463
RightLeg 123.473551 -0.000000 -0.000000
RightFoot 29.557842 -8.202126 13.130675
RightToeBase 3.620278 -0.000000 -0.000000
350
root 0.375798 33.659399 2.058793 45.218190 -6.432144 -18.360904
Spine -25.240077 0.438178 15.071378
Head -16.566478 12.268632 9.460485
LeftShoulder -5.536701 16.784041 15.548476
LeftArm 32.449716 2.479661 -41.852795
LeftForeArm 5.282696 -0.000000 18.631950
LeftHand -22.564960 0.000000 -4.192835
LeftHandThumb1 -26.253704 0.000000 33.147579
RightShoulder -20.669910 -1.953771 -25.392667
RightArm -36.455069 -25.314269 76.866521
RightForeArm -18.398609 -0.000000 10.790625
RightHand -4.960286 0.000000 26.932387
RightHandThumb1 -24.326973 -0.000000 -32.862282
LeftUpLeg -39.258185 11.487302 6.101511
LeftLeg 1.765726 -0.000000 -0.000000
LeftFoot -12.192276 11.357290 -9.186718
LeftToeBase 8.168911 -0.000000 -0.000000
RightUpLeg 7.638250 18.389000 -23.555975
RightLeg 123.347410 -0.000000 -0.000000
RightFoot 29.581003 -8.248616 12.960317
RightToeBase 3.344767 -0.000000 -0.000000
